<svg xmlns="http://www.w3.org/2000/svg" viewBox="0 0 40 40"><defs><style>.cls-1{fill:#c6a26d;}.cls-2{fill:#fff;}</style></defs><title>flag-common-glutenfree</title><g id="SANS_GLUTEN" data-name="SANS GLUTEN"><rect id="BG" class="cls-1" width="40" height="40" rx="4" ry="4"/><path class="cls-2" d="M10,17.74a2.47,2.47,0,0,0,.52,0,1.06,1.06,0,0,0,.32-.14.51.51,0,0,0,.18-.21.75.75,0,0,0,0-.26.6.6,0,0,0-.3-.52,4.3,4.3,0,0,0-1-.45c-.22-.07-.43-.16-.65-.25a2.76,2.76,0,0,1-.57-.36A1.82,1.82,0,0,1,8.12,15,1.54,1.54,0,0,1,8,14.22a1.83,1.83,0,0,1,.17-.79,1.67,1.67,0,0,1,.48-.61,2.35,2.35,0,0,1,.76-.38,3.46,3.46,0,0,1,1-.13,3.89,3.89,0,0,1,1.15.14,4.22,4.22,0,0,1,.8.3l-.43,1.13a4.31,4.31,0,0,0-.61-.24,2.78,2.78,0,0,0-.81-.11,1.57,1.57,0,0,0-.76.14.53.53,0,0,0-.15.74.83.83,0,0,0,.24.21,2,2,0,0,0,.36.18l.45.16a9.07,9.07,0,0,1,.89.36,2.47,2.47,0,0,1,.63.42,1.48,1.48,0,0,1,.37.56,2.06,2.06,0,0,1,.13.78A1.65,1.65,0,0,1,12,18.47,3.15,3.15,0,0,1,10,19a6,6,0,0,1-.78-.05,4.27,4.27,0,0,1-.62-.12,3.2,3.2,0,0,1-.47-.16,1.9,1.9,0,0,1-.32-.16l.41-1.14a3.38,3.38,0,0,0,.73.28A3.54,3.54,0,0,0,10,17.74Z"/><path class="cls-2" d="M18.17,18.83l-.24-.68-.25-.7H15.12c-.09.24-.17.47-.25.7s-.16.46-.24.68H13.1c.25-.68.48-1.32.7-1.9s.44-1.13.65-1.65l.63-1.47c.21-.46.42-.91.64-1.35h1.4c.22.44.43.89.64,1.35s.42,1,.63,1.47.43,1.07.65,1.65.46,1.22.71,1.9ZM16.39,13.9l-.14.38c-.07.16-.14.34-.22.55l-.27.69c-.1.25-.2.52-.31.79h1.88L17,15.52l-.27-.69c-.09-.21-.16-.4-.22-.56S16.43,14,16.39,13.9Z"/><path class="cls-2" d="M25,18.83c-.42-.73-.88-1.45-1.37-2.16a24.17,24.17,0,0,0-1.57-2v4.18H20.59V12.46h1.2c.21.2.44.45.69.74s.51.61.78.94.52.68.78,1,.5.71.73,1V12.46h1.46v6.37Z"/><path class="cls-2" d="M29.54,17.74a2.47,2.47,0,0,0,.52,0,1.06,1.06,0,0,0,.32-.14.48.48,0,0,0,.17-.21.75.75,0,0,0,.05-.26.6.6,0,0,0-.3-.52,4.49,4.49,0,0,0-1-.45c-.22-.07-.43-.16-.65-.25A2.83,2.83,0,0,1,28,15.5a1.64,1.64,0,0,1-.41-.53,1.54,1.54,0,0,1-.16-.75,1.7,1.7,0,0,1,.17-.79,1.67,1.67,0,0,1,.48-.61,2.35,2.35,0,0,1,.76-.38,3.41,3.41,0,0,1,1-.13,4,4,0,0,1,1.15.14,4.1,4.1,0,0,1,.79.3l-.42,1.13a4.84,4.84,0,0,0-.61-.24,2.78,2.78,0,0,0-.81-.11,1.62,1.62,0,0,0-.77.14.5.5,0,0,0-.23.44.49.49,0,0,0,.09.3.63.63,0,0,0,.24.21,1.51,1.51,0,0,0,.36.18l.45.16a9.07,9.07,0,0,1,.89.36,2.47,2.47,0,0,1,.63.42,1.61,1.61,0,0,1,.37.56,2.28,2.28,0,0,1,.12.78,1.64,1.64,0,0,1-.64,1.39,3.17,3.17,0,0,1-1.94.49,6.3,6.3,0,0,1-.79-.05,4.55,4.55,0,0,1-.62-.12,3,3,0,0,1-.46-.16,2.56,2.56,0,0,1-.33-.16l.42-1.14a3.49,3.49,0,0,0,.72.28A3.61,3.61,0,0,0,29.54,17.74Z"/><path class="cls-2" d="M5.31,23.06a1.85,1.85,0,0,0-1.49.56,2.36,2.36,0,0,0-.46,1.52,2.82,2.82,0,0,0,.12.85,1.8,1.8,0,0,0,.34.66,1.54,1.54,0,0,0,.57.43,1.92,1.92,0,0,0,.79.15H5.6l.31,0V25H7.39v3.16a5.81,5.81,0,0,1-.85.22,8.48,8.48,0,0,1-1.45.11,3.77,3.77,0,0,1-1.34-.22,2.74,2.74,0,0,1-1.69-1.68,4.09,4.09,0,0,1-.23-1.41,3.71,3.71,0,0,1,.25-1.42,3,3,0,0,1,.71-1,2.87,2.87,0,0,1,1-.65,3.64,3.64,0,0,1,1.29-.22,5.31,5.31,0,0,1,.83.06A4.28,4.28,0,0,1,6.6,22a2.43,2.43,0,0,1,.44.16,1.1,1.1,0,0,1,.25.13l-.42,1.15a3.78,3.78,0,0,0-.7-.28A3.32,3.32,0,0,0,5.31,23.06Z"/><path class="cls-2" d="M13.14,27.1v1.23H8.76V22h1.48V27.1Z"/><path class="cls-2" d="M16.56,28.46a3.27,3.27,0,0,1-1.19-.19,2.26,2.26,0,0,1-.83-.52,2,2,0,0,1-.48-.8,3.05,3.05,0,0,1-.16-1V22h1.48V25.8a2.1,2.1,0,0,0,.09.66,1.11,1.11,0,0,0,.25.44.84.84,0,0,0,.37.25,1.57,1.57,0,0,0,.49.07,1.25,1.25,0,0,0,.88-.32,1.51,1.51,0,0,0,.33-1.1V22h1.48v4a3.05,3.05,0,0,1-.16,1,2.15,2.15,0,0,1-.49.81,2.22,2.22,0,0,1-.84.52A3.73,3.73,0,0,1,16.56,28.46Z"/><path class="cls-2" d="M25.56,22v1.22h-2v5.15H22.1V23.18h-2V22Z"/><path class="cls-2" d="M26.51,28.33V22h4.43v1.2H28v1.25h2.63v1.18H28v1.54h3.18v1.2Z"/><path class="cls-2" d="M36.65,28.33c-.43-.73-.88-1.45-1.38-2.16a20.79,20.79,0,0,0-1.57-2v4.17H32.24V22h1.21c.21.2.43.45.69.74s.51.61.77.94l.78,1c.26.36.5.71.73,1V22h1.47v6.37Z"/></g></svg>